<mxfile host="app.diagrams.net" modified="2023-02-12T10:48:12.376Z" agent="5.0 (Windows NT 10.0; Win64; x64) AppleWebKit/537.36 (KHTML, like Gecko) Chrome/109.0.0.0 Safari/537.36" etag="THiHJDzdD5J6qySnjbjT" version="20.8.20" type="github">
  <diagram id="C5RBs43oDa-KdzZeNtuy" name="Page-1">
    <mxGraphModel dx="933" dy="377" grid="1" gridSize="10" guides="1" tooltips="1" connect="1" arrows="1" fold="1" page="1" pageScale="1" pageWidth="827" pageHeight="1169" math="0" shadow="0">
      <root>
        <mxCell id="WIyWlLk6GJQsqaUBKTNV-0" />
        <mxCell id="WIyWlLk6GJQsqaUBKTNV-1" parent="WIyWlLk6GJQsqaUBKTNV-0" />
        <mxCell id="WIyWlLk6GJQsqaUBKTNV-2" value="" style="rounded=0;html=1;jettySize=auto;orthogonalLoop=1;fontSize=11;endArrow=openThin;endFill=0;endSize=8;strokeWidth=1;shadow=0;labelBackgroundColor=none;edgeStyle=orthogonalEdgeStyle;exitX=0.478;exitY=1.021;exitDx=0;exitDy=0;exitPerimeter=0;entryX=0.431;entryY=-0.028;entryDx=0;entryDy=0;entryPerimeter=0;" parent="WIyWlLk6GJQsqaUBKTNV-1" source="2yg0MSYB0Pp6weZ2R1d8-0" target="2yg0MSYB0Pp6weZ2R1d8-4" edge="1">
          <mxGeometry relative="1" as="geometry">
            <mxPoint x="102" y="120" as="sourcePoint" />
            <Array as="points">
              <mxPoint x="97" y="120" />
              <mxPoint x="96" y="120" />
            </Array>
          </mxGeometry>
        </mxCell>
        <mxCell id="WIyWlLk6GJQsqaUBKTNV-4" value="No" style="rounded=0;html=1;jettySize=auto;orthogonalLoop=1;fontSize=11;endArrow=block;endFill=0;endSize=8;strokeWidth=1;shadow=0;labelBackgroundColor=none;edgeStyle=orthogonalEdgeStyle;exitX=0.5;exitY=1;exitDx=0;exitDy=0;entryX=0.5;entryY=0;entryDx=0;entryDy=0;" parent="WIyWlLk6GJQsqaUBKTNV-1" source="WIyWlLk6GJQsqaUBKTNV-6" target="WIyWlLk6GJQsqaUBKTNV-10" edge="1">
          <mxGeometry y="20" relative="1" as="geometry">
            <mxPoint as="offset" />
            <mxPoint x="101" y="349" as="sourcePoint" />
            <Array as="points">
              <mxPoint x="95" y="330" />
            </Array>
          </mxGeometry>
        </mxCell>
        <mxCell id="WIyWlLk6GJQsqaUBKTNV-6" value="Pilih (1)&lt;br&gt;Add record ?" style="rhombus;whiteSpace=wrap;html=1;shadow=0;fontFamily=Helvetica;fontSize=12;align=center;strokeWidth=1;spacing=6;spacingTop=-4;" parent="WIyWlLk6GJQsqaUBKTNV-1" vertex="1">
          <mxGeometry x="40" y="280" width="111" height="50" as="geometry" />
        </mxCell>
        <mxCell id="WIyWlLk6GJQsqaUBKTNV-7" value="Add Record" style="rounded=1;whiteSpace=wrap;html=1;fontSize=12;glass=0;strokeWidth=1;shadow=0;" parent="WIyWlLk6GJQsqaUBKTNV-1" vertex="1">
          <mxGeometry x="372" y="289" width="100" height="40" as="geometry" />
        </mxCell>
        <mxCell id="WIyWlLk6GJQsqaUBKTNV-9" value="Yes" style="edgeStyle=orthogonalEdgeStyle;rounded=0;html=1;jettySize=auto;orthogonalLoop=1;fontSize=11;endArrow=block;endFill=0;endSize=8;strokeWidth=1;shadow=0;labelBackgroundColor=none;" parent="WIyWlLk6GJQsqaUBKTNV-1" source="WIyWlLk6GJQsqaUBKTNV-10" target="WIyWlLk6GJQsqaUBKTNV-12" edge="1">
          <mxGeometry y="10" relative="1" as="geometry">
            <mxPoint as="offset" />
          </mxGeometry>
        </mxCell>
        <mxCell id="WIyWlLk6GJQsqaUBKTNV-10" value="Pilih&lt;br style=&quot;border-color: var(--border-color);&quot;&gt;Modify record&lt;br style=&quot;border-color: var(--border-color);&quot;&gt;(2)?" style="rhombus;whiteSpace=wrap;html=1;shadow=0;fontFamily=Helvetica;fontSize=12;align=center;strokeWidth=1;spacing=6;spacingTop=-4;" parent="WIyWlLk6GJQsqaUBKTNV-1" vertex="1">
          <mxGeometry x="40" y="348" width="110" height="51" as="geometry" />
        </mxCell>
        <mxCell id="WIyWlLk6GJQsqaUBKTNV-12" value="Show Transaction &lt;br&gt;List" style="rounded=1;whiteSpace=wrap;html=1;fontSize=12;glass=0;strokeWidth=1;shadow=0;" parent="WIyWlLk6GJQsqaUBKTNV-1" vertex="1">
          <mxGeometry x="201" y="410" width="120" height="40" as="geometry" />
        </mxCell>
        <mxCell id="2yg0MSYB0Pp6weZ2R1d8-0" value="Start" style="ellipse;whiteSpace=wrap;html=1;" vertex="1" parent="WIyWlLk6GJQsqaUBKTNV-1">
          <mxGeometry x="58" y="80" width="81" height="30" as="geometry" />
        </mxCell>
        <mxCell id="2yg0MSYB0Pp6weZ2R1d8-3" value="Pilih &lt;br&gt;Menu Utama" style="rounded=0;whiteSpace=wrap;html=1;" vertex="1" parent="WIyWlLk6GJQsqaUBKTNV-1">
          <mxGeometry x="36" y="190" width="120" height="60" as="geometry" />
        </mxCell>
        <mxCell id="2yg0MSYB0Pp6weZ2R1d8-4" value="Menu &lt;br&gt;Utama" style="shape=display;whiteSpace=wrap;html=1;" vertex="1" parent="WIyWlLk6GJQsqaUBKTNV-1">
          <mxGeometry x="62" y="133" width="80" height="40" as="geometry" />
        </mxCell>
        <mxCell id="2yg0MSYB0Pp6weZ2R1d8-5" value="Yes" style="edgeStyle=orthogonalEdgeStyle;rounded=0;html=1;jettySize=auto;orthogonalLoop=1;fontSize=11;endArrow=block;endFill=0;endSize=8;strokeWidth=1;shadow=0;labelBackgroundColor=none;exitX=1;exitY=0.5;exitDx=0;exitDy=0;" edge="1" parent="WIyWlLk6GJQsqaUBKTNV-1" source="WIyWlLk6GJQsqaUBKTNV-6">
          <mxGeometry x="-0.1923" y="9" relative="1" as="geometry">
            <mxPoint as="offset" />
            <mxPoint x="161" y="439" as="sourcePoint" />
            <mxPoint x="200" y="305" as="targetPoint" />
            <Array as="points">
              <mxPoint x="200" y="305" />
            </Array>
          </mxGeometry>
        </mxCell>
        <mxCell id="2yg0MSYB0Pp6weZ2R1d8-6" value="get Pricelist" style="shape=process;whiteSpace=wrap;html=1;backgroundOutline=1;" vertex="1" parent="WIyWlLk6GJQsqaUBKTNV-1">
          <mxGeometry x="201" y="279" width="120" height="60" as="geometry" />
        </mxCell>
        <mxCell id="2yg0MSYB0Pp6weZ2R1d8-7" value="Yes" style="edgeStyle=orthogonalEdgeStyle;rounded=0;html=1;jettySize=auto;orthogonalLoop=1;fontSize=11;endArrow=block;endFill=0;endSize=8;strokeWidth=1;shadow=0;labelBackgroundColor=none;exitX=1;exitY=0.5;exitDx=0;exitDy=0;" edge="1" parent="WIyWlLk6GJQsqaUBKTNV-1">
          <mxGeometry x="-0.1923" y="9" relative="1" as="geometry">
            <mxPoint as="offset" />
            <mxPoint x="320" y="310" as="sourcePoint" />
            <mxPoint x="371" y="311" as="targetPoint" />
            <Array as="points">
              <mxPoint x="361" y="310" />
            </Array>
          </mxGeometry>
        </mxCell>
        <mxCell id="2yg0MSYB0Pp6weZ2R1d8-8" value="Menu Edit&lt;br&gt;Transaction" style="rounded=0;whiteSpace=wrap;html=1;" vertex="1" parent="WIyWlLk6GJQsqaUBKTNV-1">
          <mxGeometry x="362" y="399" width="120" height="60" as="geometry" />
        </mxCell>
        <mxCell id="2yg0MSYB0Pp6weZ2R1d8-11" value="Transaction List" style="shape=process;whiteSpace=wrap;html=1;backgroundOutline=1;" vertex="1" parent="WIyWlLk6GJQsqaUBKTNV-1">
          <mxGeometry x="500" y="345" width="120" height="60" as="geometry" />
        </mxCell>
        <mxCell id="2yg0MSYB0Pp6weZ2R1d8-12" value="" style="endArrow=classic;html=1;rounded=0;exitX=1;exitY=0.5;exitDx=0;exitDy=0;entryX=0.5;entryY=0;entryDx=0;entryDy=0;" edge="1" parent="WIyWlLk6GJQsqaUBKTNV-1" source="WIyWlLk6GJQsqaUBKTNV-7" target="2yg0MSYB0Pp6weZ2R1d8-11">
          <mxGeometry width="50" height="50" relative="1" as="geometry">
            <mxPoint x="510" y="350" as="sourcePoint" />
            <mxPoint x="560" y="300" as="targetPoint" />
            <Array as="points">
              <mxPoint x="560" y="310" />
            </Array>
          </mxGeometry>
        </mxCell>
        <mxCell id="2yg0MSYB0Pp6weZ2R1d8-14" value="" style="endArrow=classic;html=1;rounded=0;entryX=0.658;entryY=-0.003;entryDx=0;entryDy=0;exitX=0;exitY=0.5;exitDx=0;exitDy=0;entryPerimeter=0;" edge="1" parent="WIyWlLk6GJQsqaUBKTNV-1" source="2yg0MSYB0Pp6weZ2R1d8-11" target="WIyWlLk6GJQsqaUBKTNV-12">
          <mxGeometry width="50" height="50" relative="1" as="geometry">
            <mxPoint x="320" y="390" as="sourcePoint" />
            <mxPoint x="370" y="340" as="targetPoint" />
            <Array as="points">
              <mxPoint x="280" y="375" />
            </Array>
          </mxGeometry>
        </mxCell>
        <mxCell id="2yg0MSYB0Pp6weZ2R1d8-15" value="" style="rounded=0;html=1;jettySize=auto;orthogonalLoop=1;fontSize=11;endArrow=block;endFill=0;endSize=8;strokeWidth=1;shadow=0;labelBackgroundColor=none;edgeStyle=orthogonalEdgeStyle;exitX=0.494;exitY=1.02;exitDx=0;exitDy=0;exitPerimeter=0;" edge="1" parent="WIyWlLk6GJQsqaUBKTNV-1" source="2yg0MSYB0Pp6weZ2R1d8-3" target="WIyWlLk6GJQsqaUBKTNV-6">
          <mxGeometry relative="1" as="geometry">
            <mxPoint x="120" y="260" as="sourcePoint" />
            <mxPoint x="111" y="279" as="targetPoint" />
            <Array as="points">
              <mxPoint x="95" y="251" />
            </Array>
          </mxGeometry>
        </mxCell>
        <mxCell id="2yg0MSYB0Pp6weZ2R1d8-24" value="Pilih&lt;br style=&quot;border-color: var(--border-color);&quot;&gt;Delete record&lt;br style=&quot;border-color: var(--border-color);&quot;&gt;(3)?" style="rhombus;whiteSpace=wrap;html=1;shadow=0;fontFamily=Helvetica;fontSize=12;align=center;strokeWidth=1;spacing=6;spacingTop=-4;" vertex="1" parent="WIyWlLk6GJQsqaUBKTNV-1">
          <mxGeometry x="46" y="417" width="100" height="52" as="geometry" />
        </mxCell>
        <mxCell id="2yg0MSYB0Pp6weZ2R1d8-25" value="No" style="rounded=0;html=1;jettySize=auto;orthogonalLoop=1;fontSize=11;endArrow=block;endFill=0;endSize=8;strokeWidth=1;shadow=0;labelBackgroundColor=none;edgeStyle=orthogonalEdgeStyle;entryX=0.5;entryY=0;entryDx=0;entryDy=0;" edge="1" parent="WIyWlLk6GJQsqaUBKTNV-1" target="2yg0MSYB0Pp6weZ2R1d8-24">
          <mxGeometry y="20" relative="1" as="geometry">
            <mxPoint as="offset" />
            <mxPoint x="94.6" y="399" as="sourcePoint" />
            <mxPoint x="95.39999999999999" y="428" as="targetPoint" />
          </mxGeometry>
        </mxCell>
        <mxCell id="2yg0MSYB0Pp6weZ2R1d8-26" value="Pilih&lt;br style=&quot;border-color: var(--border-color);&quot;&gt;Clear record&lt;br style=&quot;border-color: var(--border-color);&quot;&gt;(4)?" style="rhombus;whiteSpace=wrap;html=1;shadow=0;fontFamily=Helvetica;fontSize=12;align=center;strokeWidth=1;spacing=6;spacingTop=-4;" vertex="1" parent="WIyWlLk6GJQsqaUBKTNV-1">
          <mxGeometry x="46" y="490" width="100" height="55.5" as="geometry" />
        </mxCell>
        <mxCell id="2yg0MSYB0Pp6weZ2R1d8-28" value="Pilih&lt;br style=&quot;border-color: var(--border-color);&quot;&gt;Calc. Trans Items (5)?" style="rhombus;whiteSpace=wrap;html=1;shadow=0;fontFamily=Helvetica;fontSize=12;align=center;strokeWidth=1;spacing=6;spacingTop=-4;" vertex="1" parent="WIyWlLk6GJQsqaUBKTNV-1">
          <mxGeometry x="45" y="570" width="100" height="56" as="geometry" />
        </mxCell>
        <mxCell id="2yg0MSYB0Pp6weZ2R1d8-29" value="No" style="rounded=0;html=1;jettySize=auto;orthogonalLoop=1;fontSize=11;endArrow=block;endFill=0;endSize=8;strokeWidth=1;shadow=0;labelBackgroundColor=none;edgeStyle=orthogonalEdgeStyle;exitX=0.5;exitY=1;exitDx=0;exitDy=0;entryX=0.5;entryY=0;entryDx=0;entryDy=0;" edge="1" parent="WIyWlLk6GJQsqaUBKTNV-1" source="2yg0MSYB0Pp6weZ2R1d8-26" target="2yg0MSYB0Pp6weZ2R1d8-28">
          <mxGeometry y="20" relative="1" as="geometry">
            <mxPoint as="offset" />
            <mxPoint x="94" y="585.5" as="sourcePoint" />
            <mxPoint x="110" y="600" as="targetPoint" />
          </mxGeometry>
        </mxCell>
        <mxCell id="2yg0MSYB0Pp6weZ2R1d8-31" value="No" style="rounded=0;html=1;jettySize=auto;orthogonalLoop=1;fontSize=11;endArrow=block;endFill=0;endSize=8;strokeWidth=1;shadow=0;labelBackgroundColor=none;edgeStyle=orthogonalEdgeStyle;entryX=0.5;entryY=0;entryDx=0;entryDy=0;exitX=0.5;exitY=1;exitDx=0;exitDy=0;" edge="1" parent="WIyWlLk6GJQsqaUBKTNV-1" source="2yg0MSYB0Pp6weZ2R1d8-24" target="2yg0MSYB0Pp6weZ2R1d8-26">
          <mxGeometry x="-0.0263" y="15" relative="1" as="geometry">
            <mxPoint as="offset" />
            <mxPoint x="101.3" y="482" as="sourcePoint" />
            <mxPoint x="102.7" y="513" as="targetPoint" />
            <Array as="points">
              <mxPoint x="96" y="490" />
              <mxPoint x="95" y="490" />
            </Array>
          </mxGeometry>
        </mxCell>
        <mxCell id="2yg0MSYB0Pp6weZ2R1d8-35" value="&#xa;&lt;span style=&quot;color: rgb(0, 0, 0); font-family: Helvetica; font-size: 12px; font-style: normal; font-variant-ligatures: normal; font-variant-caps: normal; font-weight: 400; letter-spacing: normal; orphans: 2; text-align: center; text-indent: 0px; text-transform: none; widows: 2; word-spacing: 0px; -webkit-text-stroke-width: 0px; background-color: rgb(251, 251, 251); text-decoration-thickness: initial; text-decoration-style: initial; text-decoration-color: initial; float: none; display: inline !important;&quot;&gt;Pilih&lt;/span&gt;&lt;br style=&quot;border-color: var(--border-color); color: rgb(0, 0, 0); font-family: Helvetica; font-size: 12px; font-style: normal; font-variant-ligatures: normal; font-variant-caps: normal; font-weight: 400; letter-spacing: normal; orphans: 2; text-align: center; text-indent: 0px; text-transform: none; widows: 2; word-spacing: 0px; -webkit-text-stroke-width: 0px; background-color: rgb(251, 251, 251); text-decoration-thickness: initial; text-decoration-style: initial; text-decoration-color: initial;&quot;&gt;&lt;span style=&quot;color: rgb(0, 0, 0); font-family: Helvetica; font-size: 12px; font-style: normal; font-variant-ligatures: normal; font-variant-caps: normal; font-weight: 400; letter-spacing: normal; orphans: 2; text-align: center; text-indent: 0px; text-transform: none; widows: 2; word-spacing: 0px; -webkit-text-stroke-width: 0px; background-color: rgb(251, 251, 251); text-decoration-thickness: initial; text-decoration-style: initial; text-decoration-color: initial; float: none; display: inline !important;&quot;&gt;Calc. Total Price (6)?&lt;/span&gt;&#xa;&#xa;" style="rhombus;whiteSpace=wrap;html=1;shadow=0;fontFamily=Helvetica;fontSize=12;align=center;strokeWidth=1;spacing=6;spacingTop=-4;" vertex="1" parent="WIyWlLk6GJQsqaUBKTNV-1">
          <mxGeometry x="45" y="652" width="100" height="56" as="geometry" />
        </mxCell>
        <mxCell id="2yg0MSYB0Pp6weZ2R1d8-36" value="No" style="rounded=0;html=1;jettySize=auto;orthogonalLoop=1;fontSize=11;endArrow=block;endFill=0;endSize=8;strokeWidth=1;shadow=0;labelBackgroundColor=none;edgeStyle=orthogonalEdgeStyle;entryX=0.5;entryY=0;entryDx=0;entryDy=0;" edge="1" parent="WIyWlLk6GJQsqaUBKTNV-1" target="2yg0MSYB0Pp6weZ2R1d8-35" source="2yg0MSYB0Pp6weZ2R1d8-28">
          <mxGeometry y="20" relative="1" as="geometry">
            <mxPoint as="offset" />
            <mxPoint x="103" y="650" as="sourcePoint" />
            <mxPoint x="117" y="704" as="targetPoint" />
            <Array as="points">
              <mxPoint x="95" y="630" />
              <mxPoint x="95" y="630" />
            </Array>
          </mxGeometry>
        </mxCell>
        <mxCell id="2yg0MSYB0Pp6weZ2R1d8-37" value="Pilih&lt;br style=&quot;border-color: var(--border-color);&quot;&gt;Exit Menu (7)?" style="rhombus;whiteSpace=wrap;html=1;shadow=0;fontFamily=Helvetica;fontSize=12;align=center;strokeWidth=1;spacing=6;spacingTop=-4;" vertex="1" parent="WIyWlLk6GJQsqaUBKTNV-1">
          <mxGeometry x="45" y="731" width="100" height="56" as="geometry" />
        </mxCell>
        <mxCell id="2yg0MSYB0Pp6weZ2R1d8-38" value="No" style="rounded=0;html=1;jettySize=auto;orthogonalLoop=1;fontSize=11;endArrow=block;endFill=0;endSize=8;strokeWidth=1;shadow=0;labelBackgroundColor=none;edgeStyle=orthogonalEdgeStyle;exitX=0.5;exitY=1;exitDx=0;exitDy=0;entryX=0.5;entryY=0;entryDx=0;entryDy=0;" edge="1" parent="WIyWlLk6GJQsqaUBKTNV-1" target="2yg0MSYB0Pp6weZ2R1d8-37">
          <mxGeometry y="20" relative="1" as="geometry">
            <mxPoint as="offset" />
            <mxPoint x="96" y="706" as="sourcePoint" />
            <mxPoint x="110" y="760" as="targetPoint" />
          </mxGeometry>
        </mxCell>
        <mxCell id="2yg0MSYB0Pp6weZ2R1d8-44" value="Yes" style="edgeStyle=orthogonalEdgeStyle;rounded=0;html=1;jettySize=auto;orthogonalLoop=1;fontSize=11;endArrow=block;endFill=0;endSize=8;strokeWidth=1;shadow=0;labelBackgroundColor=none;entryX=0;entryY=0.5;entryDx=0;entryDy=0;exitX=1;exitY=0.5;exitDx=0;exitDy=0;" edge="1" parent="WIyWlLk6GJQsqaUBKTNV-1" source="2yg0MSYB0Pp6weZ2R1d8-24" target="WIyWlLk6GJQsqaUBKTNV-12">
          <mxGeometry x="-0.8841" y="13" relative="1" as="geometry">
            <mxPoint as="offset" />
            <mxPoint x="150" y="460" as="sourcePoint" />
            <mxPoint x="271" y="419" as="targetPoint" />
          </mxGeometry>
        </mxCell>
        <mxCell id="2yg0MSYB0Pp6weZ2R1d8-45" value="Yes" style="edgeStyle=orthogonalEdgeStyle;rounded=0;html=1;jettySize=auto;orthogonalLoop=1;fontSize=11;endArrow=block;endFill=0;endSize=8;strokeWidth=1;shadow=0;labelBackgroundColor=none;exitX=0.98;exitY=0.492;exitDx=0;exitDy=0;exitPerimeter=0;" edge="1" parent="WIyWlLk6GJQsqaUBKTNV-1" source="2yg0MSYB0Pp6weZ2R1d8-26">
          <mxGeometry x="-0.3956" y="10" relative="1" as="geometry">
            <mxPoint as="offset" />
            <mxPoint x="160" y="450" as="sourcePoint" />
            <mxPoint x="200" y="430" as="targetPoint" />
            <Array as="points">
              <mxPoint x="170" y="517" />
              <mxPoint x="170" y="430" />
            </Array>
          </mxGeometry>
        </mxCell>
        <mxCell id="2yg0MSYB0Pp6weZ2R1d8-46" value="" style="rounded=0;html=1;jettySize=auto;orthogonalLoop=1;fontSize=11;endArrow=block;endFill=0;endSize=8;strokeWidth=1;shadow=0;labelBackgroundColor=none;edgeStyle=orthogonalEdgeStyle;entryX=-0.001;entryY=0.514;entryDx=0;entryDy=0;exitX=1;exitY=0.5;exitDx=0;exitDy=0;entryPerimeter=0;" edge="1" parent="WIyWlLk6GJQsqaUBKTNV-1" source="WIyWlLk6GJQsqaUBKTNV-12" target="2yg0MSYB0Pp6weZ2R1d8-8">
          <mxGeometry y="20" relative="1" as="geometry">
            <mxPoint as="offset" />
            <mxPoint x="270" y="537.75" as="sourcePoint" />
            <mxPoint x="270" y="563.75" as="targetPoint" />
            <Array as="points">
              <mxPoint x="340" y="429" />
            </Array>
          </mxGeometry>
        </mxCell>
        <mxCell id="2yg0MSYB0Pp6weZ2R1d8-47" value="" style="rounded=0;html=1;jettySize=auto;orthogonalLoop=1;fontSize=11;endArrow=block;endFill=0;endSize=8;strokeWidth=1;shadow=0;labelBackgroundColor=none;edgeStyle=orthogonalEdgeStyle;entryX=0.5;entryY=-0.005;entryDx=0;entryDy=0;exitX=0.5;exitY=1;exitDx=0;exitDy=0;entryPerimeter=0;" edge="1" parent="WIyWlLk6GJQsqaUBKTNV-1">
          <mxGeometry x="0.2845" y="9" relative="1" as="geometry">
            <mxPoint as="offset" />
            <mxPoint x="261.5" y="449" as="sourcePoint" />
            <mxPoint x="261" y="497.54999999999995" as="targetPoint" />
            <Array as="points">
              <mxPoint x="262" y="470" />
              <mxPoint x="261" y="470" />
            </Array>
          </mxGeometry>
        </mxCell>
        <mxCell id="2yg0MSYB0Pp6weZ2R1d8-49" value="Pilih&lt;br style=&quot;border-color: var(--border-color);&quot;&gt;Modify Nama&amp;nbsp;&lt;br style=&quot;border-color: var(--border-color);&quot;&gt;(1)?" style="rhombus;whiteSpace=wrap;html=1;shadow=0;fontFamily=Helvetica;fontSize=12;align=center;strokeWidth=1;spacing=6;spacingTop=-4;" vertex="1" parent="WIyWlLk6GJQsqaUBKTNV-1">
          <mxGeometry x="367" y="485" width="110" height="51" as="geometry" />
        </mxCell>
        <mxCell id="2yg0MSYB0Pp6weZ2R1d8-50" value="Pilih&lt;br style=&quot;border-color: var(--border-color);&quot;&gt;Modify Jumlah&lt;br style=&quot;border-color: var(--border-color);&quot;&gt;(2)?" style="rhombus;whiteSpace=wrap;html=1;shadow=0;fontFamily=Helvetica;fontSize=12;align=center;strokeWidth=1;spacing=6;spacingTop=-4;" vertex="1" parent="WIyWlLk6GJQsqaUBKTNV-1">
          <mxGeometry x="373" y="559" width="100" height="52" as="geometry" />
        </mxCell>
        <mxCell id="2yg0MSYB0Pp6weZ2R1d8-51" value="No" style="rounded=0;html=1;jettySize=auto;orthogonalLoop=1;fontSize=11;endArrow=block;endFill=0;endSize=8;strokeWidth=1;shadow=0;labelBackgroundColor=none;edgeStyle=orthogonalEdgeStyle;entryX=0.5;entryY=0;entryDx=0;entryDy=0;" edge="1" parent="WIyWlLk6GJQsqaUBKTNV-1" target="2yg0MSYB0Pp6weZ2R1d8-50">
          <mxGeometry y="20" relative="1" as="geometry">
            <mxPoint as="offset" />
            <mxPoint x="421.6" y="541" as="sourcePoint" />
            <mxPoint x="422.4" y="570" as="targetPoint" />
          </mxGeometry>
        </mxCell>
        <mxCell id="2yg0MSYB0Pp6weZ2R1d8-52" value="Pilih&lt;br style=&quot;border-color: var(--border-color);&quot;&gt;Modify Harga&lt;br style=&quot;border-color: var(--border-color);&quot;&gt;(3)?" style="rhombus;whiteSpace=wrap;html=1;shadow=0;fontFamily=Helvetica;fontSize=12;align=center;strokeWidth=1;spacing=6;spacingTop=-4;" vertex="1" parent="WIyWlLk6GJQsqaUBKTNV-1">
          <mxGeometry x="373" y="632" width="100" height="55.5" as="geometry" />
        </mxCell>
        <mxCell id="2yg0MSYB0Pp6weZ2R1d8-54" value="No" style="rounded=0;html=1;jettySize=auto;orthogonalLoop=1;fontSize=11;endArrow=block;endFill=0;endSize=8;strokeWidth=1;shadow=0;labelBackgroundColor=none;edgeStyle=orthogonalEdgeStyle;exitX=0.5;exitY=1;exitDx=0;exitDy=0;entryX=0.5;entryY=0;entryDx=0;entryDy=0;" edge="1" parent="WIyWlLk6GJQsqaUBKTNV-1" source="2yg0MSYB0Pp6weZ2R1d8-50" target="2yg0MSYB0Pp6weZ2R1d8-52">
          <mxGeometry x="-0.0263" y="15" relative="1" as="geometry">
            <mxPoint as="offset" />
            <mxPoint x="428.3" y="624" as="sourcePoint" />
            <mxPoint x="430" y="630" as="targetPoint" />
            <Array as="points">
              <mxPoint x="423" y="620" />
              <mxPoint x="423" y="620" />
            </Array>
          </mxGeometry>
        </mxCell>
        <mxCell id="2yg0MSYB0Pp6weZ2R1d8-55" value="" style="rounded=0;html=1;jettySize=auto;orthogonalLoop=1;fontSize=11;endArrow=block;endFill=0;endSize=8;strokeWidth=1;shadow=0;labelBackgroundColor=none;edgeStyle=orthogonalEdgeStyle;exitX=0.5;exitY=1;exitDx=0;exitDy=0;" edge="1" parent="WIyWlLk6GJQsqaUBKTNV-1">
          <mxGeometry x="0.2845" y="9" relative="1" as="geometry">
            <mxPoint as="offset" />
            <mxPoint x="422.24" y="459" as="sourcePoint" />
            <mxPoint x="422" y="490" as="targetPoint" />
            <Array as="points">
              <mxPoint x="422.74" y="480" />
              <mxPoint x="421.74" y="480" />
            </Array>
          </mxGeometry>
        </mxCell>
        <mxCell id="2yg0MSYB0Pp6weZ2R1d8-56" value="Modify Name/Quantity&lt;br&gt;/Price" style="rounded=0;whiteSpace=wrap;html=1;" vertex="1" parent="WIyWlLk6GJQsqaUBKTNV-1">
          <mxGeometry x="510" y="554" width="110" height="60" as="geometry" />
        </mxCell>
        <mxCell id="2yg0MSYB0Pp6weZ2R1d8-57" value="" style="rounded=0;html=1;jettySize=auto;orthogonalLoop=1;fontSize=11;endArrow=block;endFill=0;endSize=8;strokeWidth=1;shadow=0;labelBackgroundColor=none;edgeStyle=orthogonalEdgeStyle;exitX=0.5;exitY=1;exitDx=0;exitDy=0;entryX=0.46;entryY=0.015;entryDx=0;entryDy=0;entryPerimeter=0;" edge="1" parent="WIyWlLk6GJQsqaUBKTNV-1" source="2yg0MSYB0Pp6weZ2R1d8-11" target="2yg0MSYB0Pp6weZ2R1d8-56">
          <mxGeometry x="0.2845" y="9" relative="1" as="geometry">
            <mxPoint as="offset" />
            <mxPoint x="540.5" y="441" as="sourcePoint" />
            <mxPoint x="540" y="490" as="targetPoint" />
            <Array as="points">
              <mxPoint x="560" y="440" />
              <mxPoint x="561" y="440" />
            </Array>
          </mxGeometry>
        </mxCell>
        <mxCell id="2yg0MSYB0Pp6weZ2R1d8-58" value="Hapus satu atau semua transaksi" style="rounded=0;whiteSpace=wrap;html=1;" vertex="1" parent="WIyWlLk6GJQsqaUBKTNV-1">
          <mxGeometry x="201" y="499" width="109" height="41" as="geometry" />
        </mxCell>
        <mxCell id="2yg0MSYB0Pp6weZ2R1d8-60" value="Yes" style="rounded=0;html=1;jettySize=auto;orthogonalLoop=1;fontSize=11;endArrow=block;endFill=0;endSize=8;strokeWidth=1;shadow=0;labelBackgroundColor=none;edgeStyle=orthogonalEdgeStyle;entryX=0.1;entryY=0.022;entryDx=0;entryDy=0;exitX=1;exitY=0.5;exitDx=0;exitDy=0;entryPerimeter=0;" edge="1" parent="WIyWlLk6GJQsqaUBKTNV-1" source="2yg0MSYB0Pp6weZ2R1d8-49" target="2yg0MSYB0Pp6weZ2R1d8-56">
          <mxGeometry x="-0.0538" y="10" relative="1" as="geometry">
            <mxPoint as="offset" />
            <mxPoint x="477" y="515" as="sourcePoint" />
            <mxPoint x="518" y="515" as="targetPoint" />
            <Array as="points">
              <mxPoint x="477" y="514" />
              <mxPoint x="520" y="514" />
              <mxPoint x="520" y="555" />
            </Array>
          </mxGeometry>
        </mxCell>
        <mxCell id="2yg0MSYB0Pp6weZ2R1d8-61" value="Yes" style="rounded=0;html=1;jettySize=auto;orthogonalLoop=1;fontSize=11;endArrow=block;endFill=0;endSize=8;strokeWidth=1;shadow=0;labelBackgroundColor=none;edgeStyle=orthogonalEdgeStyle;exitX=1;exitY=0.5;exitDx=0;exitDy=0;entryX=0;entryY=0.5;entryDx=0;entryDy=0;" edge="1" parent="WIyWlLk6GJQsqaUBKTNV-1" target="2yg0MSYB0Pp6weZ2R1d8-56">
          <mxGeometry x="-0.5897" y="5" relative="1" as="geometry">
            <mxPoint as="offset" />
            <mxPoint x="472" y="585" as="sourcePoint" />
            <mxPoint x="500" y="570" as="targetPoint" />
            <Array as="points">
              <mxPoint x="510" y="585" />
            </Array>
          </mxGeometry>
        </mxCell>
        <mxCell id="2yg0MSYB0Pp6weZ2R1d8-62" value="Yes" style="rounded=0;html=1;jettySize=auto;orthogonalLoop=1;fontSize=11;endArrow=block;endFill=0;endSize=8;strokeWidth=1;shadow=0;labelBackgroundColor=none;edgeStyle=orthogonalEdgeStyle;exitX=1;exitY=0.5;exitDx=0;exitDy=0;entryX=0.093;entryY=0.996;entryDx=0;entryDy=0;entryPerimeter=0;" edge="1" parent="WIyWlLk6GJQsqaUBKTNV-1" target="2yg0MSYB0Pp6weZ2R1d8-56">
          <mxGeometry x="-0.5315" y="-10" relative="1" as="geometry">
            <mxPoint as="offset" />
            <mxPoint x="473" y="659.25" as="sourcePoint" />
            <mxPoint x="530" y="630" as="targetPoint" />
            <Array as="points">
              <mxPoint x="520" y="659" />
              <mxPoint x="520" y="614" />
            </Array>
          </mxGeometry>
        </mxCell>
        <mxCell id="2yg0MSYB0Pp6weZ2R1d8-63" value="cek data transaksi" style="rounded=0;whiteSpace=wrap;html=1;" vertex="1" parent="WIyWlLk6GJQsqaUBKTNV-1">
          <mxGeometry x="201" y="583" width="110" height="36" as="geometry" />
        </mxCell>
        <mxCell id="2yg0MSYB0Pp6weZ2R1d8-64" value="" style="rounded=0;html=1;jettySize=auto;orthogonalLoop=1;fontSize=11;endArrow=block;endFill=0;endSize=8;strokeWidth=1;shadow=0;labelBackgroundColor=none;edgeStyle=orthogonalEdgeStyle;exitX=0.5;exitY=1;exitDx=0;exitDy=0;entryX=-0.011;entryY=0.516;entryDx=0;entryDy=0;entryPerimeter=0;" edge="1" parent="WIyWlLk6GJQsqaUBKTNV-1" target="2yg0MSYB0Pp6weZ2R1d8-49">
          <mxGeometry x="0.2845" y="9" relative="1" as="geometry">
            <mxPoint as="offset" />
            <mxPoint x="300.5" y="449" as="sourcePoint" />
            <mxPoint x="340" y="520" as="targetPoint" />
            <Array as="points">
              <mxPoint x="301" y="470" />
              <mxPoint x="320" y="470" />
              <mxPoint x="320" y="511" />
            </Array>
          </mxGeometry>
        </mxCell>
        <mxCell id="2yg0MSYB0Pp6weZ2R1d8-65" value="Yes" style="edgeStyle=orthogonalEdgeStyle;rounded=0;html=1;jettySize=auto;orthogonalLoop=1;fontSize=11;endArrow=block;endFill=0;endSize=8;strokeWidth=1;shadow=0;labelBackgroundColor=none;exitX=1;exitY=0.5;exitDx=0;exitDy=0;" edge="1" parent="WIyWlLk6GJQsqaUBKTNV-1" source="2yg0MSYB0Pp6weZ2R1d8-28">
          <mxGeometry x="-0.3956" y="10" relative="1" as="geometry">
            <mxPoint as="offset" />
            <mxPoint x="142" y="610" as="sourcePoint" />
            <mxPoint x="200" y="600" as="targetPoint" />
            <Array as="points">
              <mxPoint x="145" y="600" />
            </Array>
          </mxGeometry>
        </mxCell>
        <mxCell id="2yg0MSYB0Pp6weZ2R1d8-66" value="Hitung Total Transaksi&amp;nbsp;" style="rounded=0;whiteSpace=wrap;html=1;" vertex="1" parent="WIyWlLk6GJQsqaUBKTNV-1">
          <mxGeometry x="198" y="662" width="109" height="36" as="geometry" />
        </mxCell>
        <mxCell id="2yg0MSYB0Pp6weZ2R1d8-67" value="Yes" style="edgeStyle=orthogonalEdgeStyle;rounded=0;html=1;jettySize=auto;orthogonalLoop=1;fontSize=11;endArrow=block;endFill=0;endSize=8;strokeWidth=1;shadow=0;labelBackgroundColor=none;exitX=1;exitY=0.5;exitDx=0;exitDy=0;" edge="1" parent="WIyWlLk6GJQsqaUBKTNV-1">
          <mxGeometry x="-0.3956" y="10" relative="1" as="geometry">
            <mxPoint as="offset" />
            <mxPoint x="142" y="677" as="sourcePoint" />
            <mxPoint x="197" y="679" as="targetPoint" />
            <Array as="points">
              <mxPoint x="142" y="679" />
            </Array>
          </mxGeometry>
        </mxCell>
        <mxCell id="2yg0MSYB0Pp6weZ2R1d8-69" value="" style="rounded=0;html=1;jettySize=auto;orthogonalLoop=1;fontSize=11;endArrow=openThin;endFill=0;endSize=8;strokeWidth=1;shadow=0;labelBackgroundColor=none;edgeStyle=orthogonalEdgeStyle;exitX=0.478;exitY=1.021;exitDx=0;exitDy=0;exitPerimeter=0;" edge="1" parent="WIyWlLk6GJQsqaUBKTNV-1">
          <mxGeometry relative="1" as="geometry">
            <mxPoint x="94.92" y="173" as="sourcePoint" />
            <mxPoint x="95" y="190" as="targetPoint" />
            <Array as="points">
              <mxPoint x="94.92" y="182" />
              <mxPoint x="94.92" y="182" />
            </Array>
          </mxGeometry>
        </mxCell>
        <mxCell id="2yg0MSYB0Pp6weZ2R1d8-70" value="Finish" style="ellipse;whiteSpace=wrap;html=1;" vertex="1" parent="WIyWlLk6GJQsqaUBKTNV-1">
          <mxGeometry x="54.5" y="809" width="81" height="30" as="geometry" />
        </mxCell>
        <mxCell id="2yg0MSYB0Pp6weZ2R1d8-71" value="Yes" style="rounded=0;html=1;jettySize=auto;orthogonalLoop=1;fontSize=11;endArrow=block;endFill=0;endSize=8;strokeWidth=1;shadow=0;labelBackgroundColor=none;edgeStyle=orthogonalEdgeStyle;exitX=0.5;exitY=1;exitDx=0;exitDy=0;entryX=0.5;entryY=0;entryDx=0;entryDy=0;" edge="1" parent="WIyWlLk6GJQsqaUBKTNV-1">
          <mxGeometry x="-1" y="15" relative="1" as="geometry">
            <mxPoint x="15" y="-11" as="offset" />
            <mxPoint x="95.5" y="786" as="sourcePoint" />
            <mxPoint x="94.5" y="810" as="targetPoint" />
          </mxGeometry>
        </mxCell>
        <mxCell id="2yg0MSYB0Pp6weZ2R1d8-72" value="Menu &lt;br&gt;Utama" style="shape=display;whiteSpace=wrap;html=1;" vertex="1" parent="WIyWlLk6GJQsqaUBKTNV-1">
          <mxGeometry x="520" y="740" width="80" height="40" as="geometry" />
        </mxCell>
        <mxCell id="2yg0MSYB0Pp6weZ2R1d8-73" value="No" style="edgeStyle=orthogonalEdgeStyle;rounded=0;html=1;jettySize=auto;orthogonalLoop=1;fontSize=11;endArrow=block;endFill=0;endSize=8;strokeWidth=1;shadow=0;labelBackgroundColor=none;entryX=0;entryY=0.5;entryDx=0;entryDy=0;entryPerimeter=0;" edge="1" parent="WIyWlLk6GJQsqaUBKTNV-1" target="2yg0MSYB0Pp6weZ2R1d8-72">
          <mxGeometry x="-0.3956" y="10" relative="1" as="geometry">
            <mxPoint as="offset" />
            <mxPoint x="146" y="759" as="sourcePoint" />
            <mxPoint x="201" y="759" as="targetPoint" />
            <Array as="points">
              <mxPoint x="160" y="759" />
              <mxPoint x="160" y="759" />
            </Array>
          </mxGeometry>
        </mxCell>
        <mxCell id="2yg0MSYB0Pp6weZ2R1d8-75" value="" style="rounded=0;html=1;jettySize=auto;orthogonalLoop=1;fontSize=11;endArrow=block;endFill=0;endSize=8;strokeWidth=1;shadow=0;labelBackgroundColor=none;edgeStyle=orthogonalEdgeStyle;exitX=0.75;exitY=1;exitDx=0;exitDy=0;" edge="1" parent="WIyWlLk6GJQsqaUBKTNV-1" source="2yg0MSYB0Pp6weZ2R1d8-66">
          <mxGeometry x="0.2845" y="9" relative="1" as="geometry">
            <mxPoint as="offset" />
            <mxPoint x="330" y="698" as="sourcePoint" />
            <mxPoint x="520" y="760" as="targetPoint" />
            <Array as="points">
              <mxPoint x="280" y="719" />
              <mxPoint x="360" y="719" />
              <mxPoint x="360" y="760" />
            </Array>
          </mxGeometry>
        </mxCell>
        <mxCell id="2yg0MSYB0Pp6weZ2R1d8-76" value="" style="rounded=0;html=1;jettySize=auto;orthogonalLoop=1;fontSize=11;endArrow=block;endFill=0;endSize=8;strokeWidth=1;shadow=0;labelBackgroundColor=none;edgeStyle=orthogonalEdgeStyle;exitX=0.708;exitY=0.995;exitDx=0;exitDy=0;exitPerimeter=0;" edge="1" parent="WIyWlLk6GJQsqaUBKTNV-1" source="2yg0MSYB0Pp6weZ2R1d8-63">
          <mxGeometry x="0.2845" y="9" relative="1" as="geometry">
            <mxPoint as="offset" />
            <mxPoint x="348" y="698" as="sourcePoint" />
            <mxPoint x="520" y="760" as="targetPoint" />
            <Array as="points">
              <mxPoint x="280" y="619" />
              <mxPoint x="280" y="640" />
              <mxPoint x="360" y="640" />
              <mxPoint x="360" y="760" />
            </Array>
          </mxGeometry>
        </mxCell>
        <mxCell id="2yg0MSYB0Pp6weZ2R1d8-77" value="" style="rounded=0;html=1;jettySize=auto;orthogonalLoop=1;fontSize=11;endArrow=block;endFill=0;endSize=8;strokeWidth=1;shadow=0;labelBackgroundColor=none;edgeStyle=orthogonalEdgeStyle;exitX=0.5;exitY=1;exitDx=0;exitDy=0;" edge="1" parent="WIyWlLk6GJQsqaUBKTNV-1" source="2yg0MSYB0Pp6weZ2R1d8-58">
          <mxGeometry x="0.2845" y="9" relative="1" as="geometry">
            <mxPoint as="offset" />
            <mxPoint x="310.5" y="459" as="sourcePoint" />
            <mxPoint x="520" y="760" as="targetPoint" />
            <Array as="points">
              <mxPoint x="256" y="560" />
              <mxPoint x="360" y="560" />
              <mxPoint x="360" y="760" />
            </Array>
          </mxGeometry>
        </mxCell>
        <mxCell id="2yg0MSYB0Pp6weZ2R1d8-78" value="No" style="rounded=0;html=1;jettySize=auto;orthogonalLoop=1;fontSize=11;endArrow=block;endFill=0;endSize=8;strokeWidth=1;shadow=0;labelBackgroundColor=none;edgeStyle=orthogonalEdgeStyle;exitX=0.5;exitY=1;exitDx=0;exitDy=0;entryX=0;entryY=0.5;entryDx=0;entryDy=0;entryPerimeter=0;" edge="1" parent="WIyWlLk6GJQsqaUBKTNV-1" source="2yg0MSYB0Pp6weZ2R1d8-52" target="2yg0MSYB0Pp6weZ2R1d8-72">
          <mxGeometry x="-0.7345" y="7" relative="1" as="geometry">
            <mxPoint as="offset" />
            <mxPoint x="420" y="690" as="sourcePoint" />
            <mxPoint x="530" y="770" as="targetPoint" />
            <Array as="points">
              <mxPoint x="423" y="760" />
            </Array>
          </mxGeometry>
        </mxCell>
        <mxCell id="2yg0MSYB0Pp6weZ2R1d8-79" value="" style="rounded=0;html=1;jettySize=auto;orthogonalLoop=1;fontSize=11;endArrow=block;endFill=0;endSize=8;strokeWidth=1;shadow=0;labelBackgroundColor=none;edgeStyle=orthogonalEdgeStyle;exitX=0;exitY=0;exitDx=40;exitDy=40;entryX=1;entryY=0.5;entryDx=0;entryDy=0;exitPerimeter=0;" edge="1" parent="WIyWlLk6GJQsqaUBKTNV-1" source="2yg0MSYB0Pp6weZ2R1d8-72" target="2yg0MSYB0Pp6weZ2R1d8-70">
          <mxGeometry x="-0.7345" y="7" relative="1" as="geometry">
            <mxPoint as="offset" />
            <mxPoint x="433" y="698" as="sourcePoint" />
            <mxPoint x="530" y="770" as="targetPoint" />
            <Array as="points">
              <mxPoint x="560" y="820" />
              <mxPoint x="136" y="820" />
            </Array>
          </mxGeometry>
        </mxCell>
      </root>
    </mxGraphModel>
  </diagram>
</mxfile>
